# xmcd
# 
# Track frame offsets:
#     150
#     34576
#     42826
#     79201
#     105376
#     112876
# 
# Disc length: 2058
# 
# Revision: 0
# Processed by: cddbd v1.5.2PL0 Copyright (c) Steve Scherf et al.
# Submitted via: fre:ac v1.0.17
# 
DISCID=3b080806
DTITLE=Jack Canfield, Nick Podehl, Kate Rido - Chicken Soup for the soul - teens talk high school. 34 stories of... Disc3
DYEAR=2010
DGENRE=story telling
TTITLE0=like glass
TTITLE1=too much to sacrifice
TTITLE2=the broken boy before me
TTITLE3=without a trace
TTITLE4=the persuasion of him
TTITLE5=against my will
EXTD=
EXTT0=
EXTT1=
EXTT2=
EXTT3=
EXTT4=
EXTT5=
PLAYORDER=
